# Blender 4.2.0
# www.blender.org
mtllib hitboxsuelo.mtl
o Cube
v -0.755028 0.600676 -11.101376
v 1.244972 0.600676 -11.101376
v -0.755028 0.049758 -14.266603
v 1.244972 0.049758 -14.266603
v -0.755028 0.671653 -11.113729
v 1.244972 0.671653 -11.113729
v -0.755028 0.120735 -14.278957
v 1.244972 0.120735 -14.278957
v -1.484009 0.567430 4.453186
v 2.233062 0.567430 4.453186
v -1.484009 0.567429 -11.233002
v 2.233062 0.567430 -11.233002
v -1.484009 0.639474 4.453186
v 2.233062 0.639474 4.453186
v -1.484009 0.639474 -11.233002
v 2.233062 0.639474 -11.233002
vn -0.0000 -0.9852 0.1715
vn -0.0000 -0.1715 -0.9852
vn -0.0000 0.9852 -0.1715
vn -0.0000 0.1715 0.9852
vn -1.0000 -0.0000 -0.0000
vn 1.0000 -0.0000 -0.0000
vn -0.0000 -1.0000 -0.0000
vn -0.0000 -0.0000 -1.0000
vn -0.0000 1.0000 -0.0000
vn -0.0000 -0.0000 1.0000
vt 0.375000 0.000000
vt 0.625000 0.000000
vt 0.625000 0.250000
vt 0.375000 0.250000
vt 0.625000 0.500000
vt 0.375000 0.500000
vt 0.625000 0.750000
vt 0.375000 0.750000
vt 0.625000 1.000000
vt 0.375000 1.000000
vt 0.125000 0.500000
vt 0.125000 0.750000
vt 0.875000 0.500000
vt 0.875000 0.750000
s 0
usemtl Material.094
f 1/1/1 3/4/1 4/3/1 2/2/1
f 3/4/2 7/6/2 8/5/2 4/3/2
f 7/6/3 5/8/3 6/7/3 8/5/3
f 5/8/4 1/10/4 2/9/4 6/7/4
f 3/11/5 1/12/5 5/8/5 7/6/5
f 8/5/6 6/7/6 2/14/6 4/13/6
f 9/1/7 11/4/7 12/3/7 10/2/7
f 11/4/8 15/6/8 16/5/8 12/3/8
f 15/6/9 13/8/9 14/7/9 16/5/9
f 13/8/10 9/10/10 10/9/10 14/7/10
f 11/11/5 9/12/5 13/8/5 15/6/5
f 16/5/6 14/7/6 10/14/6 12/13/6
