# Blender 4.2.0
# www.blender.org
mtllib hitboxpared1.mtl
o Cube
v -2.262908 0.034501 2.171919
v -2.238994 3.843615 2.171919
v -2.262908 0.034501 -11.204058
v -2.238994 3.843615 -11.204058
v -2.214801 0.034199 2.171919
v -2.190886 3.843313 2.171919
v -2.214801 0.034199 -11.204058
v -2.190886 3.843313 -11.204058
v -1.056845 0.034511 6.312010
v -1.033875 3.843625 6.305357
v -2.264793 0.034511 2.141905
v -2.241824 3.843625 2.135252
v -1.007513 0.034189 6.297720
v -0.984543 3.843303 6.291066
v -2.215461 0.034189 2.127615
v -2.192491 3.843303 2.120962
vn -1.0000 0.0063 -0.0000
vn -0.0000 -0.0000 -1.0000
vn 1.0000 -0.0063 -0.0000
vn -0.0000 -0.0000 1.0000
vn -0.0063 -1.0000 -0.0000
vn 0.0063 1.0000 -0.0000
vn -0.9605 0.0063 0.2782
vn -0.2782 -0.0000 -0.9605
vn 0.9605 -0.0063 -0.2782
vn 0.2782 -0.0000 0.9605
vn -0.0060 -1.0000 0.0017
vn 0.0060 1.0000 -0.0017
vt 0.375000 0.000000
vt 0.625000 0.000000
vt 0.625000 0.250000
vt 0.375000 0.250000
vt 0.625000 0.500000
vt 0.375000 0.500000
vt 0.625000 0.750000
vt 0.375000 0.750000
vt 0.625000 1.000000
vt 0.375000 1.000000
vt 0.125000 0.500000
vt 0.125000 0.750000
vt 0.875000 0.500000
vt 0.875000 0.750000
s 0
usemtl Material.138
f 1/1/1 2/2/1 4/3/1 3/4/1
f 3/4/2 4/3/2 8/5/2 7/6/2
f 7/6/3 8/5/3 6/7/3 5/8/3
f 5/8/4 6/7/4 2/9/4 1/10/4
f 3/11/5 7/6/5 5/8/5 1/12/5
f 8/5/6 4/13/6 2/14/6 6/7/6
f 9/1/7 10/2/7 12/3/7 11/4/7
f 11/4/8 12/3/8 16/5/8 15/6/8
f 15/6/9 16/5/9 14/7/9 13/8/9
f 13/8/10 14/7/10 10/9/10 9/10/10
f 11/11/11 15/6/11 13/8/11 9/12/11
f 16/5/12 12/13/12 10/14/12 14/7/12
